<mxfile host="65bd71144e">
    <diagram id="AHXXVdJQmu01ECKvLYOQ" name="Page-1">
        <mxGraphModel dx="613" dy="1266" grid="1" gridSize="10" guides="1" tooltips="1" connect="1" arrows="1" fold="1" page="1" pageScale="1" pageWidth="850" pageHeight="1100" math="0" shadow="0">
            <root>
                <mxCell id="0"/>
                <mxCell id="1" parent="0"/>
                <mxCell id="11" style="edgeStyle=orthogonalEdgeStyle;rounded=1;orthogonalLoop=1;jettySize=auto;html=1;exitX=0.5;exitY=1;exitDx=0;exitDy=0;entryX=0.25;entryY=0;entryDx=0;entryDy=0;dashed=1;endArrow=open;endFill=0;endSize=18;" parent="1" source="2" target="9" edge="1">
                    <mxGeometry relative="1" as="geometry"/>
                </mxCell>
                <mxCell id="2" value="Controller" style="rounded=1;whiteSpace=wrap;html=1;arcSize=5;verticalAlign=top;fontSize=20;fillColor=#a20025;strokeColor=#6F0000;fontColor=#ffffff;shadow=1;" parent="1" vertex="1">
                    <mxGeometry x="20" y="20" width="220" height="100" as="geometry"/>
                </mxCell>
                <mxCell id="5" value="triggerChange()" style="rounded=1;whiteSpace=wrap;html=1;arcSize=26;fontSize=17;fillColor=#a20025;strokeColor=#6F0000;fontColor=#ffffff;shadow=1;" parent="1" vertex="1">
                    <mxGeometry x="30" y="60" width="200" height="50" as="geometry"/>
                </mxCell>
                <mxCell id="13" style="edgeStyle=orthogonalEdgeStyle;rounded=1;orthogonalLoop=1;jettySize=auto;html=1;exitX=0.5;exitY=1;exitDx=0;exitDy=0;entryX=0.75;entryY=0;entryDx=0;entryDy=0;dashed=1;endArrow=open;endFill=0;endSize=18;" parent="1" source="7" target="9" edge="1">
                    <mxGeometry relative="1" as="geometry"/>
                </mxCell>
                <mxCell id="7" value="View" style="rounded=1;whiteSpace=wrap;html=1;arcSize=5;verticalAlign=top;fontSize=20;fillColor=#1ba1e2;strokeColor=#006EAF;fontColor=#ffffff;shadow=1;" parent="1" vertex="1">
                    <mxGeometry x="400" y="20" width="220" height="100" as="geometry"/>
                </mxCell>
                <mxCell id="8" value="updateDisplay()" style="rounded=1;whiteSpace=wrap;html=1;arcSize=26;fontSize=17;fillColor=#1ba1e2;strokeColor=#006EAF;fontColor=#ffffff;shadow=1;" parent="1" vertex="1">
                    <mxGeometry x="410" y="60" width="200" height="50" as="geometry"/>
                </mxCell>
                <mxCell id="9" value="Model" style="rounded=1;whiteSpace=wrap;html=1;arcSize=5;verticalAlign=top;fontSize=20;fillColor=#60a917;strokeColor=#2D7600;fontColor=#ffffff;shadow=1;" parent="1" vertex="1">
                    <mxGeometry x="205" y="220" width="220" height="100" as="geometry"/>
                </mxCell>
                <mxCell id="10" value="businessRule()" style="rounded=1;whiteSpace=wrap;html=1;arcSize=26;fontSize=17;fillColor=#60a917;strokeColor=#2D7600;fontColor=#ffffff;shadow=1;" parent="1" vertex="1">
                    <mxGeometry x="215" y="260" width="200" height="50" as="geometry"/>
                </mxCell>
            </root>
        </mxGraphModel>
    </diagram>
</mxfile>